<?xml version="1.0" standalone="no"?>
<!DOCTYPE svg PUBLIC "-//W3C//DTD SVG 20010904//EN"
 "http://www.w3.org/TR/2001/REC-SVG-20010904/DTD/svg10.dtd">
<svg version="1.0" xmlns="http://www.w3.org/2000/svg"
 width="100.000000pt" height="100.000000pt" viewBox="0 0 100.000000 100.000000"
 preserveAspectRatio="xMidYMid meet">
<metadata>
Created by potrace 1.14, written by Peter Selinger 2001-2017
</metadata>
<g transform="translate(0.000000,100.000000) scale(0.100000,-0.100000)"
fill="#000000" stroke="none">
<path d="M58 883 c-14 -9 -31 -27 -37 -40 -7 -16 -11 -141 -11 -359 l0 -336
29 -29 29 -29 432 0 432 0 29 29 c28 28 29 33 29 121 0 74 -3 92 -16 97 -9 3
-19 1 -23 -5 -4 -7 -20 -7 -54 1 -113 25 -225 -47 -258 -165 l-10 -38 -165 0
-165 0 6 23 c18 56 72 141 121 187 109 104 260 144 446 121 54 -7 103 -9 108
-6 15 9 13 357 -2 390 -25 54 -32 55 -480 55 -367 -1 -416 -2 -440 -17z m873
-50 c11 -12 14 -54 14 -172 0 -150 -1 -156 -20 -153 -79 11 -247 4 -312 -12
-161 -40 -283 -150 -344 -308 l-22 -58 -78 0 c-72 0 -79 2 -99 27 -20 26 -21
34 -18 343 2 251 6 320 17 333 12 15 55 17 431 17 376 0 419 -2 431 -17z"/>
<path d="M237 755 c-48 -16 -61 -28 -81 -69 -21 -45 -20 -79 3 -124 65 -126
261 -80 261 61 0 98 -91 164 -183 132z m110 -67 c32 -30 31 -87 -1 -125 -52
-61 -156 -21 -156 60 0 85 95 124 157 65z"/>
</g>
</svg>
